<?xml version="1.0" encoding="utf-8"?>
<!-- Generator: Adobe Illustrator 19.2.0, SVG Export Plug-In . SVG Version: 6.00 Build 0)  -->
<svg version="1.1" id="Capa_1" xmlns="http://www.w3.org/2000/svg" xmlns:xlink="http://www.w3.org/1999/xlink" x="0px" y="0px"
	 viewBox="0 0 5126.1 4573.8" style="enable-background:new 0 0 5126.1 4573.8;" xml:space="preserve">
<style type="text/css">
	.st0{fill:#FFFFFF;}
	.st1{fill:#FFFFFF;stroke:#FFFFFF;stroke-width:2.8099;stroke-miterlimit:10;}
</style>
<g>
	<g>
		<g>
			<path class="st0" d="M1058.6,3805l3.1-447.7L808,3688.9l-249-322.4l-3.1,437l-147.9-1l-0.3-874.4L808,3439.8l398.8-505.7
				l1.9,868.3L1058.6,3805z"/>
			<path class="st0" d="M1407.9,3800.4v-862.5h151.4v862.5H1407.9z"/>
			<path class="st0" d="M2489.9,3598.6c5.8,2.8-137.2,141-154.1,150.9c-109.1,63.8-247.7,67.6-362.9,17.8
				c-51.6-22.3-96.4-54-135.4-94c-39-39.9-70-85.8-91.8-138.6c-21.8-52.9-33.3-110.4-33.3-169.2c0-58.7,11.5-116.3,33.3-170.3
				c21.8-51.7,52.8-98.7,91.8-138.6c39-39.9,83.7-71.7,135.4-92.8c51.6-23.5,107.8-34.1,165.2-34.1c145.7,0,282.9,80.1,348.8,210.7
				c-43.2,21.4-85.5,44.8-128.3,67c-2.6,1.4-59.6-71.9-66.6-78.3c-38.8-36.1-98.7-71.4-153.5-71.4c-78,0-151.9,38.8-206.9,96.4
				c-55.1,56.4-86,131.6-86,211.5c0,79.9,31,155.1,86,211.5c133,136.2,312.7,92.7,420.9-45.6
				C2352.3,3531.4,2489.6,3598.5,2489.9,3598.6z"/>
			<path class="st0" d="M3104.2,3672l-379-3.1l-70.3,131.4h-152.8l410.6-868.8l414.5,871.9l-162,3.1L3104.2,3672z M3030.8,3528.3
				l-116.1-275.1l-122.2,272L3030.8,3528.3z"/>
			<path class="st0" d="M4613.8,3672l-379-3.1l-70.3,131.4h-152.8l410.6-868.8l414.5,871.9l-162,3.1L4613.8,3672z M4540.5,3528.4
				l-116.1-275.1l-122.2,272L4540.5,3528.4z"/>
		</g>
		<path class="st0" d="M3862.1,3161.6l86.6-125.2c0,0-193.5-188.5-450.2-87.6c6.1-3.1-214,72.2-137.6,322.8
			c-3.1-3.1,36.8,86.7,162.1,141.7c6.1,3.1,222.1,50.9,260.8,71.3c-3.1,3.1,105.9,42.8,8.1,152.8c-3.1,12.2-161.9,90.7-372.8-83.5
			c8.1,8.1-79.6,133.4-79.6,133.4s160,161,383.1,133.5c6.1,3.1,212.8-2.1,255.6-194.6c-6.1,3.1,70.3-192.5-131.4-299.5
			c0-3.1-290.3-67.2-320.9-100.9c9.2,6.1-91.7-73.3,48.9-140.6C3577.9,3088.3,3678.7,3024.1,3862.1,3161.6z"/>
	</g>
	<g>
		<path class="st1" d="M1878.4,4101.2c-0.7,1.4-0.3,2.4,1.1,2.8c7.2,2.5,12.2,7.7,15,15.5c2.8,7.8,1.7,17.3-3.3,28.3
			c-7.7,17-25.2,34.7-52.3,53.2c-27.1,18.5-51.2,28.1-72.1,28.7c-5.9,0.2-10.1-0.6-12.6-2.2c-2.5-1.6-3.3-3.6-2.2-6
			c5.2-11.3,14.7-17.2,28.6-17.6c2-0.1,4.9-0.1,9,0c4,0.1,9.3-1.2,15.8-3.9c6.5-2.6,13.2-6,20-10c6.9-4.1,13.1-8.2,18.6-12.5
			s10.5-8.8,14.9-13.5c4.4-4.7,7.6-9.5,9.8-14.2c3.5-7.7,3.7-14.5,0.7-20.3c-3.1-5.8-9.5-8.6-19.2-8.3c-1.6,0-5.9,1.6-13.1,4.6
			c-7.2,3.1-11.7,4.7-13.5,4.8c-6.1,0.2-9.5-0.6-10.2-2.3c-0.7-1.7,0-4.9,2.1-9.5c1.3-2.8,9.9-7.5,26-14.1
			c13.3-5.4,27.8-13.9,43.4-25.6c15.6-11.7,25.2-21.5,28.8-29.4c2.5-5.5,2.5-9.8,0.1-12.9c-2.4-3.1-7.2-4.6-14.2-4.3
			c-11.7,0.4-24,2.4-37,6c-13,3.6-20.7,6.9-23.2,9.8c-2.4,2.9-15.6,24.7-39.4,65.5c-23.8,40.8-37.2,64.3-40.1,70.7
			c-2.9,6.3-5.4,12.1-7.7,17.5c-2.2,5.4-5.2,10.1-8.9,14.1c-3.7,4-7.9,6-12.5,6.2c-4.2,0.1-6.6-1.7-7.2-5.4
			c-0.6-3.7,0.5-8.5,3.1-14.4c0.7-1.5,2.1-3.9,4.3-7c12.9-19.4,28-44.2,45.3-74.4c17.3-30.2,27.1-47.6,29.2-52.2
			c1.7-3.8,2.5-6.5,2.5-8.3c-0.1-1.8-1.7-2.6-4.9-2.5c-1.3,0-2.5,0.1-3.8,0.2c-1.3,0.1-2.1-0.7-2.5-2.4c-0.4-1.8,0-3.9,1.1-6.4
			c3.6-7.9,18.2-16,43.9-24.3c25.6-8.3,49.9-12.8,72.7-13.5c11.7-0.4,19.7,3,23.9,9.9c4.2,7,4.1,15.3-0.4,25
			c-3.3,7.2-10.3,15.7-21.2,25.7C1906,4082.2,1893.2,4091.8,1878.4,4101.2z"/>
		<path class="st1" d="M1939.3,4182.5c-3.1,6.8-5.8,14.5-8.1,22.9c-0.4,1.6-0.9,2.9-1.4,4c-0.7,1.6-3,3.7-6.7,6.4
			c-3.8,2.6-7.1,4-10,4.1c-7.6,0.2-7.7-7.6-0.4-23.6c7.5-16.5,22.4-42.7,44.7-78.6c7.7-12.5,12.3-20.2,13.6-23.1
			c2.6-5.7,5.7-10.5,9.3-14.5c3.6-4,7.1-6.1,10.4-6.2c4-0.1,6.6,0.9,7.9,3c1.3,2.1,1.3,4.5,0.1,7.2c-1.2,2.7-3.4,6.3-6.5,10.7
			c-16.7,23.9-28.1,40.9-34.2,51.2C1952,4156.3,1945.7,4168.5,1939.3,4182.5z M2023.4,4031.8c-1.6,0-2-1.9-1-5.9
			c0.3-1.2,0.5-2.6,0.6-4.1c0.6-5.8,1.8-10.8,3.8-15.1c1.6-3.6,5.2-7.3,10.6-11.1c5.4-3.8,10.4-5.8,14.9-6c2.3-0.1,4.4,0.9,6.2,2.8
			c1.9,1.9,2.4,3.8,1.6,5.7c-1.4,3-4.6,8-9.8,15.2c-5.2,7.1-10.4,12-15.7,14.6C2029.3,4030.4,2025.5,4031.7,2023.4,4031.8z"/>
		<path class="st1" d="M2105.5,4165.2c-4.2,9.2-16.3,20.4-36.3,33.8c-20,13.4-37.6,20.3-52.6,20.7c-12.6,0.4-20.4-3.6-23.3-11.9
			c-3-8.3-0.9-20.1,6-35.3c11.7-25.7,30.4-50.3,56.1-73.9c25.7-23.6,47.5-35.7,65.4-36.2c5.9-0.2,9.7,1.9,11.4,6.1
			c1.7,4.3,1.1,9.5-1.7,15.7c-6.3,13.8-18.3,27.2-35.9,40.2c-17.6,13-39.1,25.9-64.5,38.7c-5.2,2.5-8.6,5.7-10.4,9.6
			c-3.4,7.4-4.2,13.4-2.5,17.7c1.7,4.4,6.2,6.4,13.6,6.2c16.8-0.5,38.9-11.7,66.2-33.6c3.9-3,6.6-4.6,7.9-4.6
			C2107.3,4158.4,2107.6,4160.7,2105.5,4165.2z M2033.4,4146.8c43.5-23.6,68.4-42.3,74.7-56c2.5-5.4,1.6-8-2.7-7.9
			c-7.2,0.2-18.1,6.5-32.7,18.9C2058.2,4114.2,2045.1,4129.2,2033.4,4146.8z"/>
		<path class="st1" d="M2247.1,4108.6c-4.1,0.1-9.9,3.3-17.5,9.6c-7.6,6.2-21.2,20.2-40.8,41.7c-26,28.9-41.9,45.4-47.4,49.5
			c-5.6,4.1-9.7,6.1-12.2,6.2c-9.2,0.3-11.5-4.7-6.8-14.9c2-4.3,5.4-10.4,10.2-18.4c16.7-27.2,31.9-55.9,45.6-85.9
			c1.6-3.4,4.6-7.2,9-11.5c4.5-4.2,7.8-6.4,10.1-6.5c4.1-0.1,6.3,1.2,6.7,4c0.4,2.8-1.4,8.6-5.4,17.3c-4.1,9.1-15,27.8-32.6,56.2
			c-5.8,9.4-9.3,15.3-10.5,17.8c-0.7,1.4-0.7,2.1,0,2.1c1.2,0,11.5-10.9,31-32.7c19.7-22.1,35.3-37.7,46.7-46.8
			c11.4-9.1,21.5-13.8,30.4-14.1c7-0.2,11.1,3.3,12.2,10.5c1.1,7.2-1.8,20.5-8.7,39.9c-7.9,22.1-12.3,35.8-13,41.2
			c-0.7,5.4,0.8,8,4.7,7.9c2.4-0.1,5.9-1.2,10.5-3.2c0.8-0.4,1.3-0.6,1.7-0.6c3.4-0.1,4,2.1,2,6.6c-1.8,3.9-6,8.2-12.7,12.8
			c-6.6,4.6-13.2,7-19.7,7.2c-6.7,0.2-10.4-2.7-11.3-8.6c-0.9-5.9,3.6-22,13.5-48.2C2252.8,4121.4,2254.2,4108.3,2247.1,4108.6z"/>
		<path class="st1" d="M2411.4,4165.2c-4.2,9.2-16.3,20.4-36.3,33.8c-20,13.4-37.6,20.3-52.6,20.7c-12.6,0.4-20.4-3.6-23.3-11.9
			c-3-8.3-0.9-20.1,6-35.3c11.7-25.7,30.4-50.3,56.1-73.9c25.7-23.6,47.5-35.7,65.4-36.2c5.9-0.2,9.7,1.9,11.4,6.1
			c1.7,4.3,1.2,9.5-1.7,15.7c-6.3,13.8-18.3,27.2-35.9,40.2c-17.6,13-39.1,25.9-64.5,38.7c-5.2,2.5-8.6,5.7-10.4,9.6
			c-3.4,7.4-4.3,13.4-2.5,17.7s6.2,6.4,13.6,6.2c16.8-0.5,38.9-11.7,66.2-33.6c3.9-3,6.6-4.6,7.9-4.6
			C2413.3,4158.4,2413.5,4160.7,2411.4,4165.2z M2339.4,4146.8c43.5-23.6,68.4-42.3,74.7-56c2.5-5.4,1.6-8-2.7-7.9
			c-7.2,0.2-18.1,6.5-32.7,18.9C2364.2,4114.2,2351.1,4129.2,2339.4,4146.8z"/>
		<path class="st1" d="M2499.4,4181c2.7-5.8-0.6-12.3-9.7-19.3c-11.6-8.8-19-16-22-21.4c-3-5.4-3-11.6,0.2-18.5
			c8.2-17.8,22.7-32.9,43.7-45.1c21-12.2,36.4-18.5,46.3-18.8c6.3-0.2,10.4,0.9,12.1,3.3c1.7,2.4,1.2,6.7-1.7,12.9
			c-1.3,2.8-3.4,5.2-6.4,7.2c-3,2-5.1,3.1-6.2,3.1c-0.9,0-2.2-0.6-4.1-1.9c-1.9-1.2-3.3-1.8-4.1-1.7c-3.9,0.1-13.4,3.6-28.3,10.6
			c-15,6.9-24.3,14.5-28.1,22.8c-2.3,5-2.3,9.5,0.1,13.5c2.4,4,7.7,8.7,15.9,14.3c6.6,4.6,11.3,9.5,14.1,14.9
			c2.8,5.4,2.4,11.8-1,19.2c-6.3,13.7-19.4,24.7-39.5,33c-20.1,8.3-37.6,12.6-52.6,13.1c-12.7,0.4-16.8-4.3-12.3-14.2
			c1.6-3.4,4.1-6,7.7-7.7c3.6-1.7,6.8-2.6,9.7-2.7c1.2,0,3.2,0.3,6.1,1.1c2.8,0.8,4.7,1.2,5.7,1.2c8.7-0.3,18.8-2.2,30.2-5.8
			C2486.7,4190.3,2494.8,4186,2499.4,4181z"/>
		<path class="st1" d="M2649.4,4076.5c8.4-1,16.4-2.1,24-3.3c7.5-1.1,13.5-1.7,18.2-1.9c5.9-0.2,9.4,0.3,10.4,1.5
			c1,1.2,0.8,3.4-0.7,6.5c-3.3,7.3-9.5,11.3-18.7,12.2c-11.7,1.2-22.7,2.6-32.9,4.3c-10.2,1.7-15.9,3.1-17.1,4
			c-1.2,1-8.4,11.7-21.7,32.2c-13.3,20.5-21.4,33.8-24.2,39.9c-4.5,9.9-6.4,16.4-5.6,19.6c0.8,3.2,3.4,4.7,8,4.6
			c6.7-0.2,18.7-6.3,36-18.2c6.8-4.9,11.4-7.4,13.9-7.5c3.4-0.1,4.1,1.9,2.2,6c-3,6.5-12.2,15-27.7,25.6
			c-15.5,10.6-29,16.1-40.3,16.4c-18.9,0.6-22.6-11.9-10.9-37.5c4.2-9.2,12.7-23.6,25.5-43.1c12.6-19.4,19.9-31,21.6-34.9
			c0.6-1.3,0-2-1.9-1.9l-12.8,1.6c-10,0.3-12.9-4.1-8.8-13.3c2.4-5.2,5.9-7.9,10.5-8l24.2-0.7c1.6,0,3.5-0.9,5.5-2.7
			c2-1.7,6.5-7.5,13.4-17.3c6.9-9.8,13.4-19.5,19.6-29.1c6.2-9.5,12-14.3,17.5-14.5c3.4-0.1,5.4,1.2,6,3.8c0.6,2.6,0.4,5.1-0.6,7.4
			c-0.6,1.3-4.9,7.7-13,19.4L2649.4,4076.5z"/>
		<path class="st1" d="M2764.7,4162.8c-18.7,17.2-35.3,30.2-49.9,38.9c-14.6,8.8-26.3,13.3-35.3,13.6c-6,0.2-9.9-2.6-11.6-8.3
			c-1.7-5.7-0.5-13.1,3.7-22.3c10.8-23.6,31.6-49.3,62.4-77.1c30.8-27.8,55.3-42,73.5-42.5c6.6-0.2,9.5,4,8.8,12.5
			c-0.3,2.8,0.7,4.2,2.8,4.2c6.3-0.2,8.1,2.5,5.6,8.1c-1.3,2.8-3.4,6.6-6.4,11.5c-16.3,26.6-27,45.3-31.9,56.2
			c-9.9,21.7-12.3,34.6-7,38.7c2.5,2,3,4.6,1.5,7.8c-1.3,2.8-4.2,5.6-8.9,8.6c-4.7,2.9-8.6,4.4-11.7,4.5c-6,0.2-8.8-4.4-8.4-13.8
			C2752.4,4193.9,2756.7,4180.4,2764.7,4162.8z M2792.2,4087.3c-10.3,0.3-27.4,11.8-51.3,34.4c-23.8,22.6-39.1,41.2-45.8,55.9
			c-4.7,10.3-4.1,15.4,1.9,15.2c8.6-0.3,25.1-10.6,49.5-31c24.4-20.4,40.4-38.9,48-55.6C2800.3,4093.3,2799.5,4087,2792.2,4087.3z"
			/>
		<path class="st1" d="M2863.3,4159.8c1.5-1.6,3.5-3.9,5.9-6.8c11.7-14.2,21.6-25.3,29.7-33.4c8.1-8.1,16.5-15.8,25.2-23.3
			c8.7-7.4,16.1-13.1,22.2-17c6.1-3.9,11.4-6.6,15.6-8.2c4.3-1.6,8.1-2.4,11.5-2.5c6.8-0.2,11.3,2,13.4,6.5c2.2,4.6,1.8,10-1.1,16.3
			c-1.3,2.8-3.2,5.3-5.7,7.6c-2.6,2.3-5.4,3.5-8.5,3.6c-3.3,0.1-5.5-1.5-6.8-4.7c-1.3-3.2-3.5-4.8-6.5-4.7
			c-8.1,0.3-24.6,11.9-49.3,34.9c-24.7,23-44.9,48.2-60.4,75.5c-4,7-7.6,11.7-10.8,14c-3.2,2.3-6.8,3.5-10.8,3.6
			c-3.8,0.1-5.1-3.1-3.8-9.6c1.3-6.5,5.5-17.5,12.5-33c1.9-4.2,6.4-13.5,13.3-27.9c8.2-17,15.4-30.7,21.6-41.1c1-1.7,3.2-5.7,6.7-12
			c3.7-6.9,6.6-11.7,8.6-14.5c2.1-2.7,4.9-5.3,8.5-7.7c3.6-2.4,6.9-3.7,9.9-3.8c2.9-0.1,4.6,0.9,5.1,3c0.5,2.1,0.2,4.3-0.9,6.7
			c-1.6,3.5-4.6,8.5-9.1,14.9c-5,7.1-8.3,12.1-9.9,14.8c-1.6,3.1-3.5,6.3-5.7,9.6c-2.5,3.9-8,14-16.2,30.5l-2.4,5L2863.3,4159.8z"/>
		<path class="st1" d="M3157.6,4162.8c-18.7,17.2-35.3,30.2-49.9,38.9c-14.6,8.8-26.3,13.3-35.3,13.6c-6,0.2-9.9-2.6-11.6-8.3
			c-1.7-5.7-0.5-13.1,3.7-22.3c10.8-23.6,31.6-49.3,62.4-77.1c30.8-27.8,55.3-42,73.5-42.5c6.6-0.2,9.5,4,8.8,12.5
			c-0.3,2.8,0.7,4.2,2.8,4.2c6.3-0.2,8.1,2.5,5.6,8.1c-1.3,2.8-3.4,6.6-6.4,11.5c-16.3,26.6-27,45.3-31.9,56.2
			c-9.9,21.7-12.3,34.6-7,38.7c2.5,2,3,4.6,1.5,7.8c-1.3,2.8-4.2,5.6-8.9,8.6c-4.7,2.9-8.6,4.4-11.7,4.5c-6,0.2-8.8-4.4-8.4-13.8
			C3145.4,4193.9,3149.6,4180.4,3157.6,4162.8z M3185.1,4087.3c-10.3,0.3-27.4,11.8-51.3,34.4c-23.8,22.6-39.1,41.2-45.8,55.9
			c-4.7,10.3-4.1,15.4,1.9,15.2c8.6-0.3,25.1-10.6,49.5-31c24.4-20.4,40.4-38.9,48-55.6C3193.2,4093.3,3192.5,4087,3185.1,4087.3z"
			/>
		<path class="st1" d="M3425.6,4076.5c8.4-1,16.4-2.1,24-3.3c7.5-1.1,13.5-1.7,18.2-1.9c5.9-0.2,9.4,0.3,10.4,1.5
			c1,1.2,0.8,3.4-0.7,6.5c-3.3,7.3-9.5,11.3-18.7,12.2c-11.7,1.2-22.7,2.6-32.9,4.3c-10.2,1.7-15.9,3.1-17.1,4
			c-1.2,1-8.4,11.7-21.7,32.2c-13.3,20.5-21.4,33.8-24.2,39.9c-4.5,9.9-6.4,16.4-5.6,19.6c0.8,3.2,3.4,4.7,8,4.6
			c6.7-0.2,18.7-6.3,36-18.2c6.8-4.9,11.4-7.4,13.9-7.5c3.4-0.1,4.1,1.9,2.2,6c-3,6.5-12.2,15-27.7,25.6
			c-15.5,10.6-29,16.1-40.3,16.4c-18.9,0.6-22.6-11.9-10.9-37.5c4.2-9.2,12.7-23.6,25.5-43.1c12.6-19.4,19.9-31,21.6-34.9
			c0.6-1.3,0-2-1.9-1.9l-12.8,1.6c-10,0.3-12.9-4.1-8.8-13.3c2.4-5.2,5.9-7.9,10.5-8l24.2-0.7c1.6,0,3.5-0.9,5.5-2.7
			c2-1.7,6.5-7.5,13.4-17.3c6.9-9.8,13.4-19.5,19.7-29.1c6.2-9.5,12-14.3,17.5-14.5c3.4-0.1,5.4,1.2,6,3.8c0.6,2.6,0.4,5.1-0.6,7.4
			c-0.6,1.3-4.9,7.7-13,19.4L3425.6,4076.5z"/>
		<path class="st1" d="M3549.1,4153.2c-18.8,19.6-35.9,34.8-51.2,45.8c-15.3,10.9-27.5,16.5-36.5,16.8c-5.2,0.2-8.9-3.1-11.1-9.9
			c-2.2-6.7,0-17.3,6.5-31.6c5.4-11.8,15.7-29.1,31.1-52.2c12.9-19.2,21.1-32.7,24.6-40.4c4.7-5.5,9.5-8.3,14.4-8.4
			c3.3-0.1,5.3,1.1,6.1,3.7c0.7,2.6,0.5,5.3-0.8,8.2c-2.9,6.3-8.9,15.3-18,27c-17.6,22.7-30,42.2-37.4,58.3
			c-6.7,14.7-7.1,22-1.2,21.8c7.6-0.2,20.6-7.9,39.2-23.1c18.5-15.2,38-36.1,58.5-62.8c8.1-10.7,14-17.7,17.5-20.9
			c3.5-3.2,7.1-4.9,10.6-5c5.3-0.2,6.1,3.8,2.4,11.9c-0.5,1-2.7,4.3-6.7,9.9c-13.7,19.8-24.5,38.4-32.5,55.9
			c-9.6,21-12.8,34.5-9.6,40.5c1.6,3.2,1.9,5.9,1,7.9c-1.1,2.5-3.8,4.8-7.9,7c-4.1,2.2-7.5,3.3-10,3.4c-5.5,0.2-7.8-4.4-6.9-13.6
			c0.9-9.2,5.5-22.9,13.8-41.2l2-4.4C3547.6,4156.2,3548.3,4154.7,3549.1,4153.2z"/>
		<path class="st1" d="M3805.9,4162.8c-18.7,17.2-35.3,30.2-49.9,38.9c-14.6,8.8-26.3,13.3-35.3,13.6c-6,0.2-9.9-2.6-11.6-8.3
			c-1.7-5.7-0.5-13.1,3.7-22.3c10.8-23.6,31.6-49.3,62.4-77.1c30.8-27.8,55.3-42,73.5-42.5c6.6-0.2,9.5,4,8.8,12.5
			c-0.3,2.8,0.7,4.2,2.8,4.2c6.3-0.2,8.1,2.5,5.6,8.1c-1.3,2.8-3.4,6.6-6.4,11.5c-16.3,26.6-27,45.3-31.9,56.2
			c-9.9,21.7-12.3,34.6-7,38.7c2.5,2,3,4.6,1.5,7.8c-1.3,2.8-4.2,5.6-8.9,8.6c-4.7,2.9-8.6,4.4-11.7,4.5c-6,0.2-8.8-4.4-8.4-13.8
			C3793.6,4193.9,3797.8,4180.4,3805.9,4162.8z M3833.3,4087.3c-10.3,0.3-27.4,11.8-51.3,34.4c-23.8,22.6-39.1,41.2-45.8,55.9
			c-4.7,10.3-4.1,15.4,1.9,15.2c8.6-0.3,25.1-10.6,49.5-31s40.4-38.9,48-55.6C3841.4,4093.3,3840.7,4087,3833.3,4087.3z"/>
		<path class="st1" d="M4002,3984c5.6-0.2,6.6,3.9,2.8,12.1c-3.4,7.4-14.8,25-34.2,52.8c-12.3,17.5-24.4,36.8-36.3,57.9
			c-11.9,21.1-20.6,37.6-26.1,49.5c-6.8,14.8-12.7,29.5-17.7,44.1c-1,2.8-1.7,4.8-2.3,6c-2.1,4.5-5.1,8.4-9.3,11.7
			c-4.1,3.3-7.7,5-10.7,5.1c-4.2,0.1-5.7-2.7-4.6-8.6c1.1-5.9,4.7-15.4,10.7-28.6c13.7-30,33.9-67.4,60.5-112
			c26.6-44.6,43.5-70.7,50.6-78.4C3992.6,3988,3998.1,3984.1,4002,3984z"/>
		<path class="st1" d="M3965.5,4220.6c-11.7,0.4-19-3.2-21.8-10.7c-2.8-7.5-1-18.2,5.4-32.1c10.7-23.4,30.1-48.4,58.2-74.8
			c28.1-26.5,49.1-39.9,63-40.3c6.3-0.2,10,3.6,11,11.3c1,7.7-0.5,16-4.5,24.7c-2.4,5.3-5.5,9.9-9.2,13.8c-3.7,3.9-6.6,5.8-8.7,5.9
			c-4.5,0.1-5.4-5-2.4-15.4c3.1-11.2,2.6-16.8-1.4-16.7c-8.1,0.3-22.8,11.6-44.1,34.1c-21.2,22.5-35.4,41.4-42.3,56.6
			c-7,15.3-2.9,22.6,12.2,22.2c11.5-0.4,27.9-7,49.1-19.8c7.5-4.6,12.5-6.9,15.1-7c2.7-0.1,3.2,1.6,1.6,5.1
			c-3.1,6.8-14,15.6-32.8,26.4C3995.1,4214.6,3979,4220.2,3965.5,4220.6z"/>
		<path class="st1" d="M4171.3,4162.8c-18.7,17.2-35.3,30.2-49.9,38.9c-14.6,8.8-26.3,13.3-35.3,13.6c-6,0.2-9.9-2.6-11.6-8.3
			c-1.7-5.7-0.5-13.1,3.7-22.3c10.8-23.6,31.6-49.3,62.4-77.1c30.8-27.8,55.3-42,73.5-42.5c6.6-0.2,9.5,4,8.8,12.5
			c-0.3,2.8,0.7,4.2,2.8,4.2c6.3-0.2,8.1,2.5,5.6,8.1c-1.3,2.8-3.4,6.6-6.4,11.5c-16.3,26.6-27,45.3-31.9,56.2
			c-9.9,21.7-12.3,34.6-7,38.7c2.5,2,3,4.6,1.5,7.8c-1.3,2.8-4.2,5.6-8.9,8.6c-4.7,2.9-8.6,4.4-11.7,4.5c-6,0.2-8.8-4.4-8.4-13.8
			C4159,4193.9,4163.2,4180.4,4171.3,4162.8z M4198.7,4087.3c-10.3,0.3-27.4,11.8-51.3,34.4c-23.9,22.6-39.1,41.2-45.8,55.9
			c-4.7,10.3-4.1,15.4,1.9,15.2c8.6-0.3,25.1-10.6,49.5-31c24.4-20.4,40.4-38.9,48-55.6C4206.8,4093.3,4206.1,4087,4198.7,4087.3z"
			/>
		<path class="st1" d="M4348.7,4108.6c-4.1,0.1-9.9,3.3-17.5,9.6c-7.6,6.2-21.2,20.2-40.8,41.7c-26,28.9-41.9,45.4-47.5,49.5
			c-5.6,4.1-9.7,6.1-12.2,6.2c-9.2,0.3-11.5-4.7-6.8-14.9c2-4.3,5.4-10.4,10.2-18.4c16.7-27.2,31.9-55.9,45.6-85.9
			c1.6-3.4,4.6-7.2,9-11.5c4.4-4.2,7.8-6.4,10.1-6.5c4.1-0.1,6.3,1.2,6.7,4c0.4,2.8-1.4,8.6-5.3,17.3c-4.1,9.1-15,27.8-32.6,56.2
			c-5.8,9.4-9.3,15.3-10.5,17.8c-0.7,1.4-0.7,2.1,0,2.1c1.2,0,11.5-10.9,31-32.7c19.7-22.1,35.3-37.7,46.7-46.8
			c11.4-9.1,21.5-13.8,30.4-14.1c7-0.2,11.1,3.3,12.2,10.5c1.1,7.2-1.8,20.5-8.7,39.9c-7.9,22.1-12.3,35.8-13,41.2
			c-0.7,5.4,0.8,8,4.7,7.9c2.4-0.1,5.9-1.2,10.5-3.2c0.8-0.4,1.3-0.6,1.7-0.6c3.4-0.1,4,2.1,2,6.6c-1.8,3.9-6,8.2-12.7,12.8
			c-6.6,4.6-13.2,7-19.7,7.2c-6.7,0.2-10.4-2.7-11.3-8.6c-0.9-5.9,3.6-22,13.5-48.2C4354.4,4121.4,4355.8,4108.3,4348.7,4108.6z"/>
		<path class="st1" d="M4420.2,4220.6c-11.7,0.4-19-3.2-21.8-10.7c-2.8-7.5-1-18.2,5.4-32.1c10.7-23.4,30.1-48.4,58.2-74.8
			c28.1-26.5,49.1-39.9,63-40.3c6.3-0.2,10,3.6,11,11.3c1,7.7-0.5,16-4.5,24.7c-2.4,5.3-5.5,9.9-9.2,13.8c-3.7,3.9-6.6,5.8-8.7,5.9
			c-4.5,0.1-5.4-5-2.4-15.4c3.1-11.2,2.6-16.8-1.4-16.7c-8.1,0.3-22.8,11.6-44.1,34.1c-21.2,22.5-35.4,41.4-42.3,56.6
			c-7,15.3-2.9,22.6,12.2,22.2c11.5-0.4,27.9-7,49.1-19.8c7.5-4.6,12.5-6.9,15.1-7c2.7-0.1,3.2,1.6,1.6,5.1
			c-3.1,6.8-14,15.6-32.8,26.4C4449.8,4214.6,4433.7,4220.2,4420.2,4220.6z"/>
		<path class="st1" d="M4645.9,4165.2c-4.2,9.2-16.3,20.4-36.3,33.8c-20,13.4-37.6,20.3-52.6,20.7c-12.6,0.4-20.4-3.6-23.3-11.9
			c-3-8.3-0.9-20.1,6-35.3c11.7-25.7,30.4-50.3,56.1-73.9c25.7-23.6,47.5-35.7,65.4-36.2c5.9-0.2,9.7,1.9,11.4,6.1
			c1.7,4.3,1.1,9.5-1.7,15.7c-6.3,13.8-18.3,27.2-35.9,40.2c-17.6,13-39.1,25.9-64.5,38.7c-5.2,2.5-8.7,5.7-10.4,9.6
			c-3.4,7.4-4.2,13.4-2.5,17.7c1.7,4.4,6.2,6.4,13.6,6.2c16.8-0.5,38.9-11.7,66.2-33.6c3.9-3,6.6-4.6,7.9-4.6
			C4647.8,4158.4,4648,4160.7,4645.9,4165.2z M4573.9,4146.8c43.5-23.6,68.4-42.3,74.7-56c2.5-5.4,1.6-8-2.7-7.9
			c-7.2,0.2-18.1,6.5-32.7,18.9C4598.7,4114.2,4585.6,4129.2,4573.9,4146.8z"/>
		<path class="st1" d="M4699,4185.4c-4.1,8.9-8.9,15.2-14.4,19c-5.6,3.8-9.7,5.7-12.6,5.8c-5.8,0.2-6.7-4.1-2.7-12.8
			c1.6-3.4,4.8-7.5,9.8-12.3c5-4.8,8.9-7.2,11.9-7.3c2-0.1,4,0.9,6,2.7C4699,4182.4,4699.7,4184,4699,4185.4z M4717.3,4145.4
			c-2,0.1-4.5-0.2-7.6-0.8c-3.1-0.6-5.1-1.4-5.8-2.5c3.4-9.6,13.6-27.7,30.6-54.3c13.7-21.5,22.6-36.5,26.5-45
			c5.5-12,11.1-20.2,16.9-24.5c5.8-4.3,9.9-6.5,12.5-6.6c2-0.1,3.5,0.8,4.7,2.6c1.2,1.8,1.2,3.9,0.2,6.2c-0.9,2-15.6,24.8-44.1,68.6
			c-11.9,18.3-20.2,32.3-24.8,42C4723.3,4137.5,4720.3,4142.2,4717.3,4145.4z"/>
	</g>
	<path class="st0" d="M2689.3,1098.5c0,8.3-6.8,15.1-15.1,15.1h-154.1c-8.3,0-15.1-6.7-15.1-15.1V930.1c0-8.3,6.7-15.1,15.1-15.1
		h154.1c8.3,0,15.1,6.7,15.1,15.1V1098.5z"/>
	<path class="st0" d="M2467.8,1098.5c0,8.3-6.7,15.1-15.1,15.1h-154.1c-8.3,0-15.1-6.7-15.1-15.1V930.1c0-8.3,6.7-15.1,15.1-15.1
		h154.1c8.3,0,15.1,6.7,15.1,15.1V1098.5z"/>
	<path class="st0" d="M2689.3,1338.6c0,8.3-6.8,15.1-15.1,15.1h-154.1c-8.3,0-15.1-6.7-15.1-15.1v-168.3c0-8.3,6.7-15.1,15.1-15.1
		h154.1c8.3,0,15.1,6.8,15.1,15.1V1338.6z"/>
	<path class="st0" d="M2467.8,1338.6c0,8.3-6.7,15.1-15.1,15.1h-154.1c-8.3,0-15.1-6.7-15.1-15.1v-168.3c0-8.3,6.7-15.1,15.1-15.1
		h154.1c8.3,0,15.1,6.8,15.1,15.1V1338.6z"/>
	<polygon class="st0" points="3401.7,1055.4 2471.7,616.9 790.4,1634.7 2463.9,285.8 2814.9,556.4 2813.4,382.7 3027.4,384.1 
		3027.4,727.3 	"/>
	<g>
		<path class="st0" d="M1851.6,1263c0,99.2-62.2,179.6-138.9,179.6c-76.7,0-138.9-80.4-138.9-179.6c0-99.2,62.2-179.6,138.9-179.6
			C1789.4,1083.4,1851.6,1163.8,1851.6,1263"/>
		<path class="st0" d="M3331.4,1263c0,99.2-62,179.6-138.4,179.6c-76.4,0-138.4-80.4-138.4-179.6c0-99.2,62-179.6,138.4-179.6
			C3269.4,1083.4,3331.4,1163.8,3331.4,1263"/>
		<g>
			<path class="st0" d="M2605.2,1697.1c0,96.7-62.2,175.2-138.9,175.2c-76.7,0-138.9-78.4-138.9-175.2
				c0-96.8,62.2-175.2,138.9-175.2C2543,1521.9,2605.2,1600.3,2605.2,1697.1"/>
			<path class="st0" d="M2266.6,2002.3c75-25.9,185.1-63.9,185.1-63.9s141,48.5,196.1,63.9c-68.3,127.8-105.8,669.9-105.8,669.9
				h-176.3C2365.8,2672.2,2327.4,2114.7,2266.6,2002.3"/>
			<path class="st0" d="M1568.4,1018.7c-227.4,12.6-325.4,105.5-325.4,191c0,138.2,113.6,286.4,289,434.7
				c-10,419.6,82.9,781.4,248.8,1047.8c71.6-3.6,121.9-10,197.2-13.8c-203.5-287.7-240-840.5-219.9-898.3
				c101.8,75.4,436.2,196.9,508.5,222.2c82.4-28.5,134.7-46.4,185.2-64c-414.8-153.2-945-444.7-1010.2-675.4
				C1431.5,1217.7,1434,1096.6,1568.4,1018.7"/>
			<path class="st0" d="M3335.2,1018.8c227.4,12.6,337.4,101.1,337.4,186.5c0,138.2-125.7,290.9-301,439.1
				c10,419.6-54.5,739.1-248.8,1047.8c-71.6-3.6-121.9-10-197.2-13.8c203.5-287.7,240-840.5,219.9-898.3
				c-101.8,75.4-362.3,178.5-497.6,222.1c-72.3-21.8-145.6-46.3-196.1-63.9c414.8-153.2,945-444.7,1010.2-675.4
				C3472,1217.8,3469.6,1096.7,3335.2,1018.8"/>
		</g>
	</g>
	<path class="st0" d="M513.5,2850.6c0,0,14.9-3.3,42.9-9.4c14-3,31.3-6.7,51.6-11c20.3-4.3,43.7-9.2,69.8-14.5
		c26.2-5.4,55.1-11.4,86.7-17.4c31.7-5.8,66.1-11.6,102.8-18.1c36.7-6.5,75.8-12.9,117.1-20c20.6-3.7,41.8-6.4,63.6-9.6
		c21.7-3.1,43.9-6.3,66.6-9.6c22.7-3.3,45.9-6.5,69.5-9.8c23.6-3.2,47.7-6.7,72.2-9.9c24.6-2.9,49.5-5.8,74.9-8.7
		c25.4-2.9,51.1-5.8,77.2-8.8c26.1-2.9,52.6-5.8,79.4-8.8c26.8-2.9,54-5,81.5-7.5c55-4.9,111.2-9.6,168.4-14.4
		c3.6-0.3,7.2-0.6,10.7-0.9c3.6-0.2,7.2-0.5,10.8-0.7c7.2-0.5,14.4-0.9,21.6-1.4c14.4-0.9,28.9-1.8,43.5-2.7
		c29.1-1.8,58.4-3.5,87.8-5.3c29.5-1.7,59.1-3.4,88.9-5.1c29.8-1.1,59.8-2.2,89.9-3.3c30.1-1,60.3-2.1,90.6-3.1
		c15.2-0.5,30.3-1,45.5-1.5c7.6-0.2,15.2-0.5,22.8-0.7c7.6-0.1,15.2-0.2,22.8-0.3c61-0.6,122.2-1.3,183.4-1.9
		c15.3-0.1,30.6-0.3,45.9-0.2c15.3,0.2,30.6,0.4,45.9,0.6c30.6,0.4,61.1,0.9,91.6,1.3c30.5,0.5,60.9,1,91.2,1.5l11.4,0.2l11.4,0.4
		c7.6,0.3,15.1,0.6,22.7,0.8c15.1,0.6,30.2,1.1,45.2,1.7c60.2,2.4,119.9,4.5,178.9,7.5c58.9,3.7,117.2,7.4,174.4,11.3
		c28.6,2,57,3.6,85.1,6.3c28.1,2.5,55.9,5,83.4,7.5c27.5,2.5,54.7,5.1,81.5,7.6c13.4,1.3,26.8,2.5,40,3.8c6.6,0.6,13.2,1.3,19.8,2.1
		c6.6,0.8,13.1,1.5,19.7,2.3c52.2,6.1,103,12.1,152.1,18.1c12.3,1.5,24.4,3,36.5,4.5c6,0.7,12,1.5,18,2.2c6,0.9,11.9,1.7,17.8,2.6
		c23.6,3.4,46.8,6.7,69.5,10.1c45.4,6.8,88.9,13.1,130.2,19.5c5.2,0.8,10.3,1.6,15.4,2.4c5.1,0.9,10.1,1.8,15.1,2.6
		c10,1.8,19.9,3.5,29.7,5.2c19.5,3.4,38.4,6.7,56.8,10.1c36.7,6.7,71,12.7,102.6,18.7c7.9,1.5,15.7,2.9,23.3,4.3
		c7.6,1.4,15,3.1,22.2,4.6c14.5,3.1,28.2,6,41.3,8.7c26.2,5.6,49.5,10.6,69.8,15c20.3,4.4,37.5,8.2,51.5,11.4
		c27.9,6.3,42.8,9.7,42.8,9.7s-15.2-1.2-43.8-3.6c-14.3-1.2-31.9-2.7-52.5-4.6c-20.7-1.8-44.4-4-71-6.6c-13.3-1.3-27.3-2.6-41.9-4
		c-7.3-0.7-14.8-1.5-22.5-2.2c-7.7-0.6-15.5-1.2-23.6-1.8c-32.1-2.4-66.7-5.4-103.7-8.4c-18.5-1.5-37.6-3.2-57.2-4.9
		c-9.8-0.9-19.8-1.7-29.9-2.6c-5-0.4-10.1-0.9-15.2-1.3c-5.1-0.3-10.3-0.7-15.5-1c-41.5-2.8-85.2-6-130.7-9.2
		c-22.8-1.6-46-3.4-69.6-5.2c-5.9-0.5-11.9-0.9-17.8-1.4c-6-0.3-12-0.7-18-1c-12.1-0.7-24.2-1.4-36.5-2
		c-49.1-2.8-99.8-5.8-151.9-9.1c-6.5-0.4-13-0.8-19.6-1.2c-6.6-0.4-13.1-0.8-19.7-1.1c-13.2-0.6-26.5-1.2-39.9-1.8
		c-26.8-1.2-53.8-2.5-81.2-3.7c-27.4-1.3-55-2.7-83-4c-27.9-1.6-56.2-2.1-84.6-3.2c-56.9-1.8-114.7-3.8-173.3-6l-11-0.4l-11-0.2
		c-7.3-0.1-14.7-0.3-22.1-0.4c-14.7-0.3-29.5-0.5-44.3-0.8c-29.6-0.6-59.4-1.2-89.2-1.9c-14.9-0.3-29.9-0.7-44.9-1
		c-7.5-0.2-15-0.4-22.5-0.5l-11.3-0.2l-11.3,0c-30.1-0.2-60.3-0.4-90.5-0.5c-30.2-0.2-60.5-0.5-90.8-0.7
		c-15.2-0.1-30.3-0.3-45.5-0.4c-15.2-0.1-30.3,0.2-45.5,0.3c-60.7,0.3-121.4,0.7-181.9,1c-7.6,0-15.1,0.1-22.7,0.1
		c-7.5,0.2-15.1,0.3-22.6,0.5c-15.1,0.3-30.1,0.6-45.2,0.9c-30.1,0.6-60.1,1.2-90,1.8c-29.9,0.5-59.6,1.1-89.3,1.6
		c-29.6,1-59.1,2-88.3,3c-29.3,0.9-58.4,1.9-87.3,2.8c-14.5,0.4-28.9,0.9-43.2,1.3c-7.2,0.2-14.3,0.4-21.5,0.6
		c-3.6,0.1-7.1,0.2-10.7,0.3c-3.6,0.2-7.1,0.3-10.7,0.5c-56.9,2.7-112.8,5.3-167.6,7.7c-13.7,0.6-27.3,1.2-40.9,1.8
		c-13.5,0.6-27,0.9-40.4,1.9c-26.7,1.6-53.2,3.2-79.2,4.7c-26.1,1.5-51.8,2.9-77.1,4.4c-25.4,1.4-50.3,2.7-74.9,4.1
		c-49.1,3.4-96.5,6.7-142,9.9c-22.8,1.5-45.1,3-66.9,4.4c-10.9,0.7-21.7,1.4-32.3,2.1c-5.3,0.4-10.6,0.6-15.9,1.1
		c-5.2,0.4-10.5,0.9-15.6,1.3c-41.4,3.3-80.7,6.7-117.7,9.5c-37,2.8-71.6,5.6-103.7,7.8c-8,0.5-15.9,1.3-23.6,2
		c-7.7,0.7-15.2,1.4-22.5,2.1c-14.7,1.3-28.7,2.6-42,3.8c-26.6,2.4-50.4,4.4-71.1,6.1c-20.7,1.7-38.3,3.1-52.6,4.2
		C528.7,2849.5,513.5,2850.6,513.5,2850.6z"/>
</g>
</svg>
